<svg xmlns="http://www.w3.org/2000/svg" viewBox="0 0 277.48 88.14"><defs><style>.cls-1{fill:#00a5bb;}.cls-2{fill:#fff;}.cls-3{fill:#0a0203;}</style></defs><g id="Layer_2" data-name="Layer 2"><g id="Layer_1-2" data-name="Layer 1"><circle class="cls-1" cx="44.07" cy="44.07" r="44.07"/><path class="cls-2" d="M18.45,62.88a1.82,1.82,0,1,0,1.82,1.82A1.83,1.83,0,0,0,18.45,62.88Z"/><path class="cls-2" d="M47.13,12.91A1.82,1.82,0,1,0,49,14.73,1.83,1.83,0,0,0,47.13,12.91Z"/><circle class="cls-2" cx="69.74" cy="64.7" r="1.82"/><circle class="cls-2" cx="49.19" cy="59.27" r="1.82"/><path class="cls-2" d="M70.51,61.59a3.21,3.21,0,0,1,1.51.86l1.82-3.2L49.44,17a3.22,3.22,0,0,1-1.5.88L71.85,59.26Z"/><path class="cls-2" d="M42.45,15.6h1.6a3.21,3.21,0,0,1,0-1.74h-3.6L14.29,59.25l1.86,3.22a3.2,3.2,0,0,1,1.5-.87L16.3,59.25,41,16.47l26.5,46A3.22,3.22,0,0,1,69,61.6Z"/><path class="cls-2" d="M47.44,62l-.6,1.88H21.53a3.21,3.21,0,0,1,0,1.74H48.11l1-3.1A3.22,3.22,0,0,1,47.44,62Z"/><path class="cls-2" d="M66.66,63.83H64.2L40.94,23.94,19.23,61.6a3.14,3.14,0,0,1,1.51.86L41,27.4l2.13,3.65L26.15,60.17l20,0a3.22,3.22,0,0,1-.12-.88,3,3,0,0,1,.12-.86l-16.94,0,2.19-3.78h18.4l-.45,1.42A3.11,3.11,0,0,1,51,56.6l1.17-3.68H32.37L44.09,32.78,63.2,65.57h3.46a3.21,3.21,0,0,1,0-1.74Z"/><path class="cls-3" d="M109.59,59.74l10.83-32.21H127l10.84,32.21-.58.87H134l-2.73-8.34h-15l-2.73,8.34h-3.31Zm7.81-11.12h12.65L124.3,31.18h-1.15Z"/><path class="cls-3" d="M146.36,53.8V25.14h3.84v29q0,3.27,3.35,3.45V61Q146.36,61,146.36,53.8Z"/><path class="cls-3" d="M162.5,53.42V27.53h3.83v8.15h9.11V39h-9.11V53.9q0,3.35,3.36,3.35h6.23v1.92L174,60.61h-4.31Q162.51,60.61,162.5,53.42Z"/><path class="cls-3" d="M191.57,60.61q-7.23,0-7.23-7.24t7.23-7.24h8.78V42.39Q200.35,39,197,39H186.73V37.12l1.92-1.44H197q7.19,0,7.19,7.19V60.61Zm-3.4-6.71q0,3.35,3.36,3.35h8.82V49.49h-8.82q-3.36,0-3.36,3.35Z"/><path class="cls-3" d="M214.76,60.61V27.53H223l9.34,20,9.35-20H250V60.61H243V39.71l-7.76,16.58h-5.85l-7.76-16.58v20.9Z"/><path class="cls-3" d="M256.3,60.61V27.53h6.9V54.38h14.28v6.23Z"/></g></g></svg>